# xmcd CD database file generated by MAGIX-FreeDB-MP3_deluxe_MX v3.0beta1
#
# Track frame offsets:
#	150
#	21285
#	30175
#	43418
#	75343
#	83849
#	102199
#	112542
#	156853
#	163454
#	178662
#	200149
#	211496
#	223534
#	238702
#	250629
#	259892
#	282542
#
# Disc length: 4436
#
# Revision: 4
# Processed by: cddbd v1.5.2PL0 Copyright (c) Steve Scherf et al.
# Submitted via: MAGIX-FreeDB-MP3_deluxe_MX v3.0beta1
#
DISCID=f7115212
DTITLE=Hans Zimmer and John Powell - Kung Fu Panda
DYEAR=2008
DGENRE=Soundtrack
TTITLE0=Hero
TTITLE1=Let The Tournament Begin
TTITLE2=Dragon Warrior Is Amoung Us
TTITLE3=Tai Lung Escapes
TTITLE4=Peach Tree Of Wisdom
TTITLE5=Accu-Flashback
TTITLE6=Impersonating Shifu
TTITLE7=Sacred Pool Of Tears
TTITLE8=Training Po
TTITLE9=The Bridge
TTITLE10=Shifu Faces Tai Lung
TTITLE11=The Dragon Scroll
TTITLE12=Po Vs Tai Lung
TTITLE13=Dragon Warrior Rises
TTITLE14=Panda Po
TTITLE15=Oogway Ascends
TTITLE16=Cee-Lo Green and Jack Black - Kung Fu Fighting
TTITLE17=Data Track
EXTD=
EXTT0=
EXTT1=
EXTT2=
EXTT3=
EXTT4=
EXTT5=
EXTT6=
EXTT7=
EXTT8=
EXTT9=
EXTT10=
EXTT11=
EXTT12=
EXTT13=
EXTT14=
EXTT15=
EXTT16=
EXTT17=
PLAYORDER=
